<svg id="Layer_1" data-name="Layer 1" xmlns="http://www.w3.org/2000/svg" viewBox="0 0 512 410.48"><defs><style>.cls-1{fill:#fff;}</style></defs><title>chat-icon</title><path class="cls-1" d="M174.08,239.56s-22.69,0-22.93,0a12,12,0,0,0-7.72,3.5L75.26,311.27s0-60.39-.06-60.7a12.07,12.07,0,0,0-12-11H28.83a4.68,4.68,0,0,1-4.67-4.67V28.83a4.68,4.68,0,0,1,4.67-4.67H372.29A4.68,4.68,0,0,1,377,28.83v79.06a12.08,12.08,0,0,0,24.16,0V28.83A28.86,28.86,0,0,0,372.29,0H28.83A28.86,28.86,0,0,0,0,28.83V234.89a28.86,28.86,0,0,0,28.83,28.83H51.1v76.71A12.08,12.08,0,0,0,71.72,349L157,263.72h17.1a12.08,12.08,0,0,0,0-24.16Z"/><path class="cls-1" d="M483.17,147.73H242.75a28.86,28.86,0,0,0-28.83,28.83V317.13A28.86,28.86,0,0,0,242.75,346H393.27l61,61a12.08,12.08,0,0,0,20.62-8.54V346h8.3A28.86,28.86,0,0,0,512,317.13V176.56A28.86,28.86,0,0,0,483.17,147.73Zm4.67,169.4a4.68,4.68,0,0,1-4.67,4.67H462.79a12.07,12.07,0,0,0-12,11.15c0,.26-.05,36.29-.05,36.29l-43.85-43.85-.14-.14c-.17-.17-.33-.31-.49-.44a12,12,0,0,0-8-3H242.75a4.68,4.68,0,0,1-4.67-4.67V176.56a4.68,4.68,0,0,1,4.67-4.67H483.17a4.68,4.68,0,0,1,4.67,4.67Z"/><path class="cls-1" d="M363,234.77A12.08,12.08,0,1,0,375,246.85,12.08,12.08,0,0,0,363,234.77Z"/><path class="cls-1" d="M90.65,79.85a12.08,12.08,0,0,0,0,24.16H310.47a12.08,12.08,0,0,0,0-24.16Z"/><path class="cls-1" d="M174.08,159.71H90.65a12.08,12.08,0,1,0,0,24.16h83.42a12.08,12.08,0,0,0,0-24.16Z"/><path class="cls-1" d="M306.84,234.77a12.08,12.08,0,1,0,12.08,12.08A12.08,12.08,0,0,0,306.84,234.77Z"/><path class="cls-1" d="M419.08,234.77a12.08,12.08,0,1,0,12.08,12.08A12.08,12.08,0,0,0,419.08,234.77Z"/></svg>