<?xml version="1.0" encoding="utf-8"?>
<!-- Generator: Adobe Illustrator 16.0.0, SVG Export Plug-In . SVG Version: 6.00 Build 0)  -->
<!DOCTYPE svg PUBLIC "-//W3C//DTD SVG 1.1//EN" "http://www.w3.org/Graphics/SVG/1.1/DTD/svg11.dtd">
<svg version="1.1" id="Layer_1" xmlns="http://www.w3.org/2000/svg" xmlns:xlink="http://www.w3.org/1999/xlink" x="0px" y="0px"
	 width="180.158px" height="263.628px" viewBox="0 0 180.158 263.628" enable-background="new 0 0 180.158 263.628"
	 xml:space="preserve">
<g>
	<g>
		<path fill="#666666" d="M179.582,230.218l-35.055-91.683l26.703-12.723c4.176-1.394,5.566-5.57,4.176-8.355L164.27,86.833
			l11.137-30.625c1.391-2.786-1.395-6.961-4.176-8.356l-29.234-13.922l-13.922-29.23c-1.395-4.176-5.57-5.571-8.355-4.176
			L89.094,11.661L58.469,0.523c-2.785-1.395-6.961,1.391-8.356,4.176l-13.918,29.23L6.961,47.852
			c-4.176,1.395-5.57,5.57-4.176,8.356l11.137,30.625L2.785,117.458c-1.394,2.785,1.391,6.961,4.176,8.355l26.309,12.527L0,228.825
			c0,2.785,0,5.569,1.391,6.961c1.394,2.785,4.175,2.785,6.961,2.785l33.41-5.567l20.883,26.45c1.39,1.39,2.785,2.785,5.566,2.785
			h1.394c2.786,0,4.176-1.396,5.567-4.181l14.101-38.336l15.133,39.731c1.391,2.785,2.785,4.175,5.566,4.175h1.395
			c2.785,0,4.176-1.39,5.566-2.785l20.883-26.449l33.41,5.567c2.785,0,5.566-1.391,6.961-2.782
			C179.582,235.786,180.973,233.003,179.582,230.218L179.582,230.218z M19.488,57.597l26.45-12.527c1.394,0,2.785-1.395,2.785-2.785
			l12.531-26.449l26.449,9.746h4.176l26.449-9.746l12.527,26.449c0,1.39,1.391,2.785,2.785,2.785l26.449,12.527l-9.746,26.449v4.176
			l9.746,26.449l-26.449,12.532c-1.395,0-2.785,1.39-2.785,2.781l-12.527,26.453l-26.449-9.746h-4.176l-26.449,9.746l-12.531-26.453
			c0-1.391-1.391-2.781-2.785-2.781l-26.45-12.532l9.746-26.449v-4.176L19.488,57.597z M66.82,242.747l-16.707-20.883
			c-1.39-2.781-4.175-2.781-6.957-2.781l-26.453,4.175l25.785-70.316l7.625,16.023c1.395,4.176,5.571,5.571,8.356,4.176
			l30.625-11.137l6.473,2.356L66.82,242.747z M135.035,217.687c-2.785,0-5.57,1.396-6.961,2.785l-16.707,20.883L96.43,200.261
			l11.543-31.394l11.75,4.272h2.781c1.395,0,4.176-1.39,5.57-4.176l7.918-16.621l25.488,69.521L135.035,217.687z M135.035,217.687"
			/>
	</g>
</g>
</svg>
