<?xml version="1.0" encoding="utf-8"?>
<!-- Generator: Adobe Illustrator 16.0.0, SVG Export Plug-In . SVG Version: 6.00 Build 0)  -->
<!DOCTYPE svg PUBLIC "-//W3C//DTD SVG 1.1//EN" "http://www.w3.org/Graphics/SVG/1.1/DTD/svg11.dtd">
<svg version="1.1" id="Layer_1" xmlns="http://www.w3.org/2000/svg" xmlns:xlink="http://www.w3.org/1999/xlink" x="0px" y="0px"
	 width="512.001px" height="245.913px" viewBox="0 133.043 512.001 245.913" enable-background="new 0 133.043 512.001 245.913"
	 xml:space="preserve">
<g>
	<g>
		<path fill="#666666" d="M509.473,256.394l-59.392-67.801c-1.937-2.21-4.732-3.479-7.672-3.479h-49.455v-41.872
			c0-5.633-4.566-10.199-10.198-10.199H172.109c-5.632,0-10.198,4.566-10.198,10.199v13.762H63.818
			c-5.632,0-10.198,4.566-10.198,10.199c0,5.633,4.566,10.199,10.198,10.199h98.093v132.209h-59.047
			c-5.632,0-10.198,4.566-10.198,10.199s4.566,10.199,10.198,10.199h59.047v10.365c0,5.633,4.566,10.199,10.198,10.199h21.288
			c4.485,16.339,19.459,28.382,37.203,28.382s32.718-12.043,37.204-28.382h136.089v-0.001c4.485,16.339,19.459,28.382,37.203,28.382
			s32.718-12.043,37.204-28.382h23.502c5.632,0,10.199-4.566,10.199-10.199v-77.261C512,260.643,511.101,258.253,509.473,256.394z
			 M230.6,358.559c-10.025,0-18.182-8.158-18.182-18.184s8.156-18.184,18.182-18.184c10.026,0,18.184,8.158,18.184,18.184
			S240.626,358.559,230.6,358.559z M267.802,330.176c-4.485-16.339-19.46-28.382-37.204-28.382s-32.717,12.043-37.203,28.382
			h-11.089V153.44h190.247v176.736H267.802z M441.094,358.559c-10.026,0-18.183-8.158-18.183-18.184s8.156-18.184,18.183-18.184
			c10.025,0,18.183,8.158,18.183,18.184S451.12,358.559,441.094,358.559z M491.602,330.176h-13.304
			c-4.485-16.339-19.46-28.382-37.204-28.382s-32.717,12.043-37.203,28.382h-10.939V205.512h44.831l53.818,61.438L491.602,330.176
			L491.602,330.176z"/>
	</g>
</g>
<g>
	<g>
		<path fill="#666666" d="M69.261,309.611h-5.442c-5.632,0-10.198,4.565-10.198,10.199c0,5.633,4.566,10.198,10.198,10.198h5.442
			c5.632,0,10.199-4.565,10.199-10.198C79.46,314.177,74.894,309.611,69.261,309.611z"/>
	</g>
</g>
<g>
	<g>
		<path fill="#666666" d="M119.5,232.276H10.199C4.567,232.276,0,236.842,0,242.475c0,5.633,4.566,10.199,10.199,10.199H119.5
			c5.632,0,10.199-4.566,10.199-10.199C129.699,236.842,125.132,232.276,119.5,232.276z"/>
	</g>
</g>
</svg>
