<?xml version="1.0" encoding="utf-8"?>
<!-- Generator: Adobe Illustrator 16.0.0, SVG Export Plug-In . SVG Version: 6.00 Build 0)  -->
<!DOCTYPE svg PUBLIC "-//W3C//DTD SVG 1.1//EN" "http://www.w3.org/Graphics/SVG/1.1/DTD/svg11.dtd">
<svg version="1.1" id="Layer_1" xmlns="http://www.w3.org/2000/svg" xmlns:xlink="http://www.w3.org/1999/xlink" x="0px" y="0px"
	 width="48px" height="43.199px" viewBox="0 0 48 43.199" enable-background="new 0 0 48 43.199" xml:space="preserve">
<g>
	<path fill="#666666" d="M47.992,14.398c-0.082-1.367-1.707-2.438-4.965-3.253c0.109-0.239,0.172-0.489,0.172-0.747V4.801h-0.012
		C42.898,0.137,23.793,0,21.602,0C19.406,0,0.301,0.137,0.012,4.801H0v5.597c0.004,1.52,1.965,2.711,4.883,3.598
		c-0.039,0.133-0.063,0.266-0.071,0.402H4.801v5.59c-3.145,0.813-4.715,1.867-4.793,3.211H0v5.602
		c0.004,1.059,0.957,1.953,2.52,2.703C2.461,31.664,2.422,31.832,2.41,32H2.398v5.603c0.008,2.659,6,4.312,12.657,5.082
		c0.047,0.011,0.093,0.03,0.144,0.03c0.016,0,0.028-0.008,0.043-0.012c1.285,0.146,2.59,0.258,3.879,0.34
		c0.027,0.004,0.051,0.017,0.078,0.017c0.016,0,0.028-0.009,0.043-0.009c1.637,0.098,3.25,0.148,4.758,0.148
		s3.121-0.051,4.758-0.148c0.016,0,0.027,0.009,0.043,0.009c0.027,0,0.051-0.017,0.078-0.017c1.289-0.082,2.594-0.194,3.879-0.34
		c0.016,0,0.027,0.008,0.043,0.008c0.051,0,0.098-0.02,0.145-0.026c6.656-0.774,12.648-2.427,12.656-5.086V32h-0.016
		c-0.055-0.979-0.891-1.801-2.543-2.483c0.102-0.231,0.156-0.47,0.156-0.72v-5.23c2.871-0.882,4.797-2.062,4.801-3.57v-5.598H47.992
		z M41.512,29.06l-0.27,0.237c-0.422,0.371-1.121,0.742-2.043,1.102v-3.812c0.953-0.332,1.762-0.699,2.402-1.102v3.312
		C41.602,28.879,41.57,28.965,41.512,29.06L41.512,29.06z M23.621,32.773c-0.117,0.004-0.234,0.004-0.351,0.008
		c-0.286,0.008-0.579,0.008-0.868,0.012v-3.996c0.219-0.004,0.438-0.008,0.66-0.012l0.126-0.004
		c0.804-0.011,1.613-0.039,2.414-0.074v3.992c-0.172,0.012-0.344,0.02-0.516,0.028C24.602,32.746,24.117,32.762,23.621,32.773
		L23.621,32.773z M20.129,32.785c-0.367-0.008-0.734-0.015-1.094-0.027l-0.137-0.004c-0.433-0.016-0.867-0.03-1.296-0.055v-3.992
		c0.8,0.039,1.605,0.063,2.41,0.078c0.043,0,0.086,0,0.129,0c0.218,0.004,0.437,0.008,0.66,0.012v3.996
		c-0.156,0-0.313,0-0.465-0.004C20.266,32.789,20.195,32.785,20.129,32.785L20.129,32.785z M5.676,30.961
		c-0.024-0.008-0.051-0.016-0.074-0.023v-3.863c0.746,0.203,1.55,0.387,2.398,0.555v3.902c-0.734-0.156-1.41-0.32-2.027-0.488
		C5.875,31.017,5.773,30.988,5.676,30.961L5.676,30.961z M22.539,37.586c0.223,0.004,0.441,0.008,0.66,0.013v3.995
		c-1.105-0.008-2.172-0.038-3.199-0.09v-3.996c0.801,0.039,1.605,0.062,2.414,0.078C22.457,37.586,22.496,37.586,22.539,37.586
		L22.539,37.586z M25.586,37.586c0.809-0.016,1.613-0.043,2.414-0.078V41.5c-1.027,0.051-2.094,0.086-3.199,0.094v-4
		c0.219,0,0.438-0.004,0.66-0.008C25.504,37.586,25.543,37.586,25.586,37.586L25.586,37.586z M32,37.224v3.972
		c-0.77,0.082-1.57,0.153-2.398,0.211v-3.992C30.41,37.363,31.211,37.297,32,37.224L32,37.224z M33.602,37.051
		c0.824-0.102,1.625-0.215,2.398-0.34v3.931c-0.754,0.132-1.555,0.254-2.398,0.366V37.051z M37.602,36.426
		c0.848-0.168,1.652-0.352,2.398-0.551v3.863c-0.711,0.207-1.516,0.407-2.398,0.594V36.426z M10.398,36.426v3.906
		C9.516,40.146,8.711,39.945,8,39.738v-3.863C8.746,36.074,9.551,36.262,10.398,36.426L10.398,36.426z M12,36.711
		c0.773,0.129,1.574,0.242,2.398,0.34v3.957c-0.843-0.112-1.644-0.234-2.398-0.366V36.711z M16,37.224
		c0.789,0.073,1.59,0.14,2.398,0.194v3.988C17.57,41.349,16.77,41.277,16,41.195V37.224z M14.016,32.438
		c-0.082-0.007-0.164-0.016-0.243-0.023c-0.058-0.008-0.117-0.012-0.171-0.019v-3.974c0.785,0.078,1.586,0.141,2.398,0.195v3.988
		C15.328,32.556,14.664,32.5,14.016,32.438L14.016,32.438z M12,28.25v3.957c-0.844-0.113-1.645-0.233-2.398-0.367v-3.93
		C10.375,28.039,11.176,28.152,12,28.25L12,28.25z M27.734,32.566c-0.176,0.012-0.355,0.027-0.535,0.039v-3.988
		c0.812-0.055,1.613-0.117,2.402-0.195v3.974c-0.496,0.05-1,0.101-1.52,0.144C27.965,32.547,27.848,32.56,27.734,32.566
		L27.734,32.566z M31.199,32.207V28.25c0.824-0.098,1.625-0.211,2.402-0.34v3.93C32.848,31.974,32.047,32.099,31.199,32.207
		L31.199,32.207z M35.199,27.625c0.852-0.164,1.652-0.352,2.402-0.551v3.863c-0.715,0.208-1.516,0.406-2.402,0.594V27.625z
		 M24.262,23.974c-0.602-0.017-1.192-0.039-1.77-0.067c-0.031-0.004-0.062-0.004-0.094-0.004v-3.996
		c0.805,0.039,1.61,0.063,2.414,0.078c0.044,0,0.087,0,0.126,0.004c0.223,0.004,0.441,0.004,0.66,0.008v3.996
		c-0.387-0.004-0.781-0.008-1.16-0.015C24.379,23.974,24.32,23.974,24.262,23.974L24.262,23.974z M5.602,12.539V8.676
		C6.348,8.875,7.152,9.059,8,9.227v3.906c-0.098-0.024-0.199-0.043-0.297-0.063c-0.426-0.093-0.84-0.191-1.238-0.297
		C6.164,12.699,5.875,12.617,5.602,12.539L5.602,12.539z M20.141,10.387c0.218,0.004,0.437,0.008,0.66,0.008v3.996
		c-1.078-0.012-2.149-0.039-3.199-0.09v-3.992c0.8,0.035,1.605,0.062,2.41,0.078C20.055,10.387,20.098,10.387,20.141,10.387
		L20.141,10.387z M23.188,10.383c0.804-0.016,1.609-0.039,2.414-0.074v3.988c-0.137,0.008-0.27,0.015-0.406,0.023
		c-0.008,0-0.02,0-0.031,0.004c-0.539,0.024-1.086,0.039-1.641,0.051c-0.085,0.004-0.171,0.004-0.257,0.008
		c-0.286,0.004-0.578,0.008-0.868,0.008v-3.996c0.223,0,0.442-0.004,0.661-0.008L23.188,10.383z M41.418,10.785l-0.023-0.004
		l-0.293,0.227c-0.422,0.328-1.07,0.66-1.902,0.984V8.184c0.953-0.329,1.762-0.696,2.402-1.098v3.309
		C41.602,10.516,41.535,10.648,41.418,10.785L41.418,10.785z M31.199,13.801V9.848c0.824-0.098,1.625-0.211,2.402-0.336v3.922
		C32.84,13.566,32.043,13.691,31.199,13.801L31.199,13.801z M35.199,13.125V9.227c0.852-0.168,1.652-0.352,2.402-0.551v3.855
		C36.883,12.738,36.074,12.937,35.199,13.125L35.199,13.125z M29.602,10.023v3.969c-0.773,0.078-1.574,0.153-2.402,0.211v-3.984
		C28.012,10.164,28.812,10.098,29.602,10.023L29.602,10.023z M13.602,13.992v-3.969c0.785,0.075,1.586,0.141,2.398,0.196v3.98
		C15.188,14.141,14.383,14.074,13.602,13.992L13.602,13.992z M12,9.848v3.953c-0.16-0.02-0.324-0.035-0.48-0.059
		c-0.102-0.012-0.2-0.027-0.301-0.043c-0.461-0.066-0.914-0.137-1.356-0.211c-0.09-0.015-0.175-0.031-0.261-0.047V9.512
		C10.375,9.637,11.176,9.75,12,9.848L12,9.848z M20.602,23.793c-0.11-0.012-0.215-0.02-0.325-0.026
		c-0.511-0.039-1.011-0.082-1.5-0.134c-0.105-0.008-0.211-0.02-0.312-0.03c-0.024,0-0.043-0.004-0.067-0.009v-3.973
		c0.79,0.078,1.59,0.141,2.403,0.195v3.989C20.734,23.801,20.668,23.797,20.602,23.793L20.602,23.793z M15.316,23.195
		c-0.316-0.05-0.613-0.105-0.918-0.16v-3.922c0.778,0.125,1.579,0.239,2.403,0.336v3.957c-0.492-0.062-0.969-0.133-1.43-0.203
		C15.352,23.199,15.336,23.195,15.316,23.195L15.316,23.195z M12.801,18.828v3.899c-0.887-0.192-1.688-0.396-2.403-0.603v-3.852
		C11.148,18.477,11.949,18.66,12.801,18.828L12.801,18.828z M8.801,17.785v3.801c-1.258-0.484-2.071-0.981-2.332-1.422l-0.055-0.09
		c-0.004-0.027-0.012-0.051-0.016-0.078v-3.312C7.039,17.086,7.848,17.453,8.801,17.785L8.801,17.785z M27.988,19.984
		c0.805-0.015,1.609-0.039,2.41-0.078v3.992c-1.051,0.051-2.117,0.079-3.199,0.09v-3.992c0.223-0.004,0.441-0.004,0.66-0.008
		L27.988,19.984z M38.324,23.056c-0.352,0.058-0.703,0.12-1.066,0.175c-0.211,0.031-0.426,0.062-0.637,0.094
		c-0.203,0.028-0.414,0.051-0.621,0.078v-3.953c0.824-0.097,1.625-0.211,2.402-0.336v3.926
		C38.375,23.043,38.352,23.051,38.324,23.056L38.324,23.056z M32.91,23.738c-0.301,0.023-0.609,0.039-0.91,0.062v-3.984
		c0.812-0.054,1.613-0.117,2.398-0.195v3.969c-0.465,0.052-0.926,0.098-1.406,0.141C32.965,23.73,32.938,23.734,32.91,23.738
		L32.91,23.738z M42.051,22.238c-0.398,0.11-0.82,0.215-1.25,0.317c-0.199,0.047-0.402,0.09-0.609,0.136
		c-0.062,0.012-0.129,0.027-0.191,0.039v-3.902c0.852-0.168,1.652-0.351,2.402-0.555v3.869
		C42.285,22.172,42.168,22.203,42.051,22.238L42.051,22.238z M46.391,14.453c-0.074,0.543-1.305,1.266-3.5,1.945
		c-2.832,0.872-7.262,1.672-12.875,1.922c-0.285,0.012-0.574,0.024-0.863,0.035c-0.242,0.008-0.48,0.012-0.727,0.02
		c-0.66,0.016-1.332,0.023-2.027,0.023c-0.691,0-1.363-0.007-2.027-0.023c-0.242-0.008-0.48-0.016-0.723-0.023
		c-0.293-0.008-0.578-0.02-0.867-0.032c-5.609-0.25-10.039-1.05-12.871-1.925c-2.18-0.672-3.406-1.391-3.5-1.93
		c0.004-0.016,0.004-0.028,0.016-0.047c0.054,0.012,0.113,0.023,0.168,0.039c0.312,0.074,0.636,0.145,0.961,0.215
		c1.59,0.34,3.351,0.621,5.226,0.836c0.008,0,0.012,0.004,0.02,0.004h0.004c1.277,0.144,2.605,0.258,3.965,0.34
		c0.011,0,0.019,0.007,0.031,0.007c0.004,0,0.008-0.004,0.015-0.004c0.981,0.055,1.973,0.098,2.977,0.122
		C20.406,15.992,21.012,16,21.602,16c0.418,0,0.847-0.004,1.285-0.012c5.812-0.09,11.199-0.781,14.945-1.851
		c0.176-0.051,0.344-0.102,0.508-0.153c0.102-0.031,0.207-0.058,0.305-0.089c0.289-0.094,0.566-0.192,0.836-0.29
		c0.047-0.015,0.09-0.035,0.137-0.05c0.227-0.086,0.445-0.176,0.652-0.266c0.059-0.027,0.121-0.055,0.18-0.078
		c0.223-0.102,0.438-0.203,0.637-0.309c0.086-0.047,0.164-0.097,0.25-0.144c0.094-0.055,0.191-0.113,0.281-0.168
		c0.051-0.031,0.109-0.063,0.156-0.094C45.355,13.27,46.301,14.121,46.391,14.453L46.391,14.453z M21.602,1.602
		c13.191,0,19.863,2.074,19.988,3.265c-0.098,0.543-1.328,1.258-3.5,1.93c-2.832,0.875-7.262,1.676-12.871,1.922
		c-0.289,0.011-0.574,0.023-0.867,0.035c-0.242,0.008-0.48,0.016-0.723,0.019c-0.664,0.016-1.336,0.028-2.027,0.028
		c-0.696,0-1.368-0.012-2.028-0.028c-0.246-0.003-0.484-0.011-0.726-0.019c-0.293-0.012-0.578-0.024-0.864-0.035
		C12.371,8.473,7.941,7.672,5.109,6.797C2.938,6.125,1.707,5.41,1.613,4.867C1.738,3.676,8.41,1.602,21.602,1.602L21.602,1.602z
		 M1.602,10.398V7.086C2.238,7.488,3.047,7.855,4,8.184v3.832C2.445,11.434,1.602,10.848,1.602,10.398L1.602,10.398z M5.477,21.469
		c0.011,0.012,0.027,0.023,0.043,0.035c1.093,1.105,3.359,1.977,6.183,2.625c0.067,0.013,0.133,0.027,0.199,0.043
		c0.207,0.047,0.418,0.095,0.633,0.138c2.59,0.55,5.688,0.948,9.059,1.147c0.004,0,0.004,0,0.004,0c0.004,0,0.004,0,0.004,0
		c1.086,0.063,2.191,0.105,3.324,0.125c0.5,0.012,0.992,0.021,1.473,0.021c0.555,0,1.121-0.009,1.695-0.024
		c1.047-0.019,2.078-0.062,3.094-0.121c0.004,0,0.008,0,0.012,0c0.008,0,0.012-0.004,0.02-0.004c3.383-0.199,6.555-0.601,9.238-1.18
		c-0.582,0.301-1.379,0.618-2.367,0.922c-2.988,0.926-7.762,1.766-13.824,1.961c-0.18,0.004-0.36,0.012-0.542,0.016
		c-0.196,0.004-0.395,0.009-0.594,0.013c-0.504,0.007-1.008,0.015-1.527,0.015c-0.696,0-1.368-0.008-2.028-0.023
		c-0.246-0.008-0.484-0.016-0.726-0.023c-0.293-0.007-0.578-0.02-0.864-0.031c-5.613-0.25-10.043-1.051-12.875-1.926
		c-2.199-0.679-3.429-1.402-3.5-1.945C1.699,22.949,2.508,22.195,5.477,21.469L5.477,21.469z M1.602,28.797v-3.312
		c0.636,0.402,1.445,0.77,2.398,1.102v3.812l-0.457-0.175L3.535,30.23C2.277,29.711,1.602,29.199,1.602,28.797L1.602,28.797z
		 M4,37.599v-3.313c0.641,0.402,1.449,0.771,2.398,1.102v3.828C4.844,38.633,4,38.047,4,37.599L4,37.599z M41.602,39.215v-3.828
		c0.949-0.331,1.758-0.699,2.398-1.102v3.309C44,38.047,43.156,38.633,41.602,39.215L41.602,39.215z M43.988,32.062
		c-0.086,0.54-1.316,1.258-3.5,1.934c-2.828,0.875-7.258,1.676-12.871,1.926c-0.289,0.013-0.574,0.023-0.867,0.031
		c-0.238,0.008-0.48,0.016-0.723,0.024C25.363,35.988,24.691,36,24,36c-0.691,0-1.367-0.012-2.027-0.026
		c-0.243-0.005-0.481-0.013-0.719-0.021c-0.293-0.012-0.582-0.022-0.871-0.035c-5.613-0.246-10.043-1.047-12.871-1.922
		c-2.117-0.652-3.34-1.348-3.492-1.883c0.238,0.082,0.484,0.164,0.738,0.242c0.027,0.008,0.051,0.016,0.078,0.023
		c0.215,0.066,0.437,0.129,0.664,0.191c0.086,0.023,0.172,0.051,0.258,0.071c0.129,0.034,0.258,0.069,0.39,0.101
		c2.914,0.746,6.633,1.278,10.649,1.516c0,0,0,0,0.004,0c1.242,0.07,2.508,0.117,3.789,0.134c0.34,0.007,0.68,0.007,1.012,0.007
		c0.437,0,0.89-0.003,1.347-0.012c1.168-0.02,2.32-0.062,3.445-0.129c0.004,0,0.004,0,0.008,0s0.004,0,0.008,0
		c1.371-0.086,2.699-0.202,3.977-0.348c0.004,0,0.008,0,0.016,0c0.016,0,0.031-0.008,0.047-0.008c1.422-0.164,2.77-0.367,4.02-0.602
		c0.258-0.047,0.512-0.094,0.762-0.145c0.059-0.011,0.113-0.023,0.168-0.035c2.363-0.483,4.406-1.113,5.812-1.891
		c0.074-0.043,0.148-0.085,0.219-0.128c0.09-0.052,0.176-0.106,0.258-0.161c0.078-0.05,0.164-0.098,0.234-0.148
		C43.504,31.355,43.938,31.859,43.988,32.062L43.988,32.062z M44,21.613v-3.828c0.953-0.332,1.762-0.699,2.398-1.101v3.312
		C46.398,20.445,45.555,21.031,44,21.613L44,21.613z M44,21.613"/>
</g>
</svg>
