<svg height='200' width='200'  fill="#ffffff" xmlns="http://www.w3.org/2000/svg" xmlns:xlink="http://www.w3.org/1999/xlink" version="1.1" x="0px" y="0px" viewBox="0 0 64 64" style="enable-background:new 0 0 64 64;" xml:space="preserve"><path d="M56.57,8.347c-3.45-2.858-7.955-4.022-12.358-3.188c-0.007,0.001-0.014,0.002-0.02,0.004L25.795,9.021  c-0.046,0.01-0.087,0.03-0.13,0.046c-2.437,0.216-4.701,1.021-6.665,2.266V8h3c0.553,0,1-0.447,1-1V3c0-0.553-0.447-1-1-1h-8  c-0.553,0-1,0.447-1,1v15.659c-0.636,1.662-1,3.458-1,5.341v3H3c-0.553,0-1,0.447-1,1v11c0,0.553,0.447,1,1,1h8.447l-2.994,6.586  c-1.931,4.248-1.952,8.371-0.06,11.311C10.098,60.543,13.154,62,17,62c5.827,0,12.408-3.416,17-8.336V61c0,0.553,0.447,1,1,1h9h5  c0.553,0,1-0.447,1-1V36.91l11.33-3.966C61.731,32.804,62,32.425,62,32V19.896C62,15.416,60.021,11.206,56.57,8.347z M15,4h6v2h-3  c-0.553,0-1,0.447-1,1v5.827c-0.103,0.092-0.194,0.196-0.294,0.291c-0.183,0.174-0.363,0.35-0.537,0.532  c-0.153,0.161-0.301,0.325-0.447,0.492c-0.186,0.213-0.366,0.43-0.54,0.653c-0.058,0.075-0.124,0.143-0.181,0.219V4z M14,24  c0-1.709,0.34-3.338,0.942-4.834c0.38-0.947,0.876-1.843,1.463-2.672c0.065-0.092,0.135-0.18,0.202-0.27  c0.226-0.303,0.466-0.594,0.718-0.876c0.096-0.107,0.191-0.215,0.29-0.319c0.274-0.287,0.563-0.56,0.862-0.822  c2.069-1.803,4.707-2.957,7.609-3.161c0.002,0,0.004,0.001,0.006,0.001l0.051-0.003C26.427,11.025,26.711,11,27,11  c6.134,0,11.277,4.276,12.637,10h-2.821C36.928,20.686,37,20.352,37,20v-1c0-1.654-1.346-3-3-3c-2.086,0-3.924,1.071-5,2.69  c-1.076-1.62-2.914-2.69-5-2.69c-1.654,0-3,1.346-3,3v0.5c0,0.539,0.133,1.044,0.351,1.5H17c-0.553,0-1,0.447-1,1v4v1h-2V24z M30,25  v-2h4h5.949C39.975,23.331,40,23.662,40,24v1H30z M40,27v11H30V27H40z M30.127,21c0.444-1.724,2.013-3,3.873-3c0.552,0,1,0.448,1,1  v1c0,0.552-0.448,1-1,1H30.127z M18,25v-2h6.5H28v2H18z M28,27v11H18V28v-1H28z M23,19.5V19c0-0.552,0.448-1,1-1  c1.86,0,3.429,1.276,3.873,3H24.5C23.673,21,23,20.327,23,19.5z M4,38v-9h9h3v9h-3H4z M35.598,48.225  c-0.116,0.201-0.239,0.398-0.362,0.596c-0.319,0.509-0.66,1.017-1.036,1.521c-0.004,0.005-0.005,0.011-0.009,0.017  C30.034,55.923,23.059,60,17,60c-3.143,0-5.602-1.132-6.925-3.186c-1.518-2.357-1.445-5.784,0.198-9.4L13.644,40H17h22.447  l-0.8,1.76l-2.194,4.826c-0.18,0.396-0.383,0.785-0.592,1.172C35.776,47.914,35.688,48.07,35.598,48.225z M43,60h-7v-8.729  c0.178-0.245,0.345-0.491,0.511-0.738c0.061-0.09,0.124-0.179,0.183-0.27c0.256-0.392,0.492-0.786,0.717-1.18  c0.07-0.122,0.138-0.245,0.205-0.368c0.236-0.434,0.461-0.868,0.657-1.301l3.46-7.611L43,39.36V60z M48,60h-3V38.66l1.125-0.394  L48,37.61V60z M60,31.29l-11.329,3.966c0,0-0.001,0-0.001,0L42,37.59V26v-2c0-0.473-0.028-0.938-0.071-1.4  c-0.013-0.144-0.035-0.285-0.052-0.428c-0.039-0.321-0.087-0.639-0.146-0.953c-0.029-0.155-0.06-0.309-0.094-0.463  c-0.07-0.315-0.151-0.625-0.24-0.932c-0.038-0.13-0.071-0.26-0.112-0.389c-0.137-0.426-0.287-0.846-0.46-1.255  c-0.015-0.036-0.034-0.071-0.05-0.107c-0.161-0.372-0.338-0.736-0.527-1.092c-0.067-0.125-0.139-0.247-0.209-0.37  c-0.152-0.266-0.31-0.528-0.477-0.784c-0.084-0.128-0.168-0.255-0.255-0.38c-0.181-0.259-0.371-0.511-0.567-0.758  c-0.079-0.1-0.154-0.202-0.236-0.299c-0.281-0.336-0.574-0.661-0.882-0.971c-0.045-0.045-0.095-0.086-0.141-0.131  c-0.268-0.262-0.545-0.514-0.832-0.756c-0.111-0.093-0.225-0.181-0.338-0.271c-0.236-0.188-0.477-0.369-0.725-0.542  c-0.126-0.088-0.252-0.176-0.38-0.26c-0.266-0.175-0.539-0.338-0.816-0.496c-0.11-0.062-0.216-0.129-0.327-0.189  c-0.386-0.207-0.781-0.399-1.186-0.572c-0.086-0.037-0.176-0.066-0.263-0.101c-0.258-0.105-0.516-0.21-0.781-0.301l12.761-2.678  c3.816-0.716,7.713,0.29,10.701,2.766C58.285,12.364,60,16.013,60,19.896V31.29z"></path><path d="M15.105,42.553l-3,6l1.789,0.895L16.618,44H31v-2H16C15.621,42,15.275,42.214,15.105,42.553z"></path><rect x="6" y="31" width="8" height="2"></rect><polygon points="4,8 6,8 6,6 8,6 8,4 6,4 6,2 4,2 4,4 2,4 2,6 4,6 "></polygon><rect x="7" y="12" width="2" height="2"></rect><rect x="2" y="17" width="2" height="2"></rect><rect x="60" y="44" width="2" height="2"></rect><rect x="53" y="51" width="2" height="2"></rect><polygon points="60,56 58,56 58,58 56,58 56,60 58,60 58,62 60,62 60,60 62,60 62,58 60,58 "></polygon></svg>