<svg id="Layer_1" data-name="Layer 1" xmlns="http://www.w3.org/2000/svg" viewBox="0 0 511.99 389.63"><defs><style>.cls-1{fill:#fff;}</style></defs><title>mail-icon</title><path class="cls-1" d="M449.48,0H62.61A62.66,62.66,0,0,0,0,62.61V327a62.66,62.66,0,0,0,62.61,62.6H449.38A62.66,62.66,0,0,0,512,327V62.71A62.6,62.6,0,0,0,449.48,0Zm34,327a34,34,0,0,1-34,34H62.61a34,34,0,0,1-34-34V62.71a34,34,0,0,1,34-34H449.38a34,34,0,0,1,34,34V327Zm0,0"/><path class="cls-1" d="M322.89,191.53,448.1,79.24a14.32,14.32,0,1,0-19.17-21.29l-172.68,155-33.69-30.09c-.1-.1-.21-.21-.21-.32a21.76,21.76,0,0,0-2.33-2L82.95,57.84a14.33,14.33,0,1,0-19.07,21.4l126.7,113.24L64.41,310.6a14.36,14.36,0,0,0-.64,20.23,14.64,14.64,0,0,0,10.48,4.56A14.34,14.34,0,0,0,84,331.57L212.08,211.77l34.74,31a14.28,14.28,0,0,0,19.07-.1l35.7-32,127.33,121a14.33,14.33,0,0,0,20.23-.53,14.35,14.35,0,0,0-.53-20.23Zm0,0"/></svg>